<?xml version="1.0" encoding="UTF-8"?>
<svg version="1.1" xmlns="http://www.w3.org/2000/svg" width="385" height="385">
<path d="M0 0 C0.95261719 0.5259375 1.90523437 1.051875 2.88671875 1.59375 C12.57081243 7.1698897 20.87785329 14.37678516 29 22 C29.76666992 22.71567139 29.76666992 22.71567139 30.54882812 23.44580078 C41.99155098 34.21035985 50.99022625 45.86522334 58 60 C58.56332031 61.093125 59.12664062 62.18625 59.70703125 63.3125 C63.26507397 70.40524126 66.00993365 77.59318368 68.3125 85.1875 C68.55484375 85.98212646 68.7971875 86.77675293 69.046875 87.59545898 C72.42278659 99.2406851 73.30344189 110.42513639 73.20581055 122.47436523 C73.18739335 124.82611831 73.18530273 127.17747864 73.18554688 129.52929688 C73.18063522 131.04687836 73.17480844 132.56445723 73.16796875 134.08203125 C73.16685593 134.77383987 73.1657431 135.4656485 73.16459656 136.17842102 C73.12259644 140.53300761 72.67724824 144.70176191 72 149 C71.28380746 157.56323237 71.28380746 157.56323237 75 165 C75.66 165.66 76.32 166.32 77 167 C76.9690625 168.423125 76.9690625 168.423125 76.9375 169.875 C77.00769181 173.38459063 77.66923608 174.47500575 80 177 C75.35355239 180.12741666 71.33810835 182.23038921 66 183.9375 C58.66521437 186.87876742 56.37161873 192.40923645 53.01708984 199.09619141 C36.81289935 229.42751101 4.71626382 252.12163593 -27.45996094 262.23876953 C-64.15939617 273.23731231 -102.87012611 269.82723331 -136.8125 252.125 C-158.04063192 240.56177682 -181.09692014 222.32826189 -191.9375 200.109375 C-198.65355363 186.98184016 -208.43238178 182.84176352 -222 178 C-222 171.71807425 -219.32037779 167.78445334 -215.4375 163.125 C-212.38477933 158.61228249 -211.74394214 154.50590054 -212.359375 149.17578125 C-213.05702684 141.89894227 -213.22061509 134.67428667 -213.24023438 127.37182617 C-213.24994426 125.19996871 -213.28110874 123.02905955 -213.3125 120.85742188 C-213.4136907 107.55596484 -211.3636874 94.97399873 -207.1875 82.3125 C-206.92960693 81.51706787 -206.67171387 80.72163574 -206.40600586 79.90209961 C-199.72655388 59.82725501 -188.52957443 42.2870404 -174 27 C-173.54608887 26.51885742 -173.09217773 26.03771484 -172.62451172 25.54199219 C-128.23673129 -21.23740366 -56.16571015 -31.32441892 0 0 Z " fill="#FBFDFE" transform="translate(266,69)"/>
<path d="M0 0 C0.95261719 0.5259375 1.90523437 1.051875 2.88671875 1.59375 C12.57081243 7.1698897 20.87785329 14.37678516 29 22 C29.76666992 22.71567139 29.76666992 22.71567139 30.54882812 23.44580078 C41.99155098 34.21035985 50.99022625 45.86522334 58 60 C58.56332031 61.093125 59.12664062 62.18625 59.70703125 63.3125 C63.26507397 70.40524126 66.00993365 77.59318368 68.3125 85.1875 C68.55484375 85.98212646 68.7971875 86.77675293 69.046875 87.59545898 C72.39614743 99.14879316 73.3268703 110.29689534 73.26074219 122.25463867 C73.24999952 124.56260336 73.26070943 126.86979281 73.2734375 129.17773438 C73.27999189 137.32385608 72.9055485 145.02946827 71 153 C70.01 153.33 69.02 153.66 68 154 C62.67517427 145.27963323 57.52947782 136.48587848 52.62744141 127.52001953 C50.04126111 122.80620155 47.32703437 118.18761582 44.54614258 113.58618164 C41.40849153 108.33793633 38.4236317 103.00094333 35.41210938 97.6796875 C32.39429052 92.37020025 29.2746481 87.15531756 26 82 C27.98 85.96 29.96 89.92 32 94 C31.01 94.495 31.01 94.495 30 95 C28.02 91.37 26.04 87.74 24 84 C23.34 84.66 22.68 85.32 22 86 C18.81135351 83.87423567 17.76778013 81.98084193 15.9765625 78.671875 C14.8827026 76.79918685 13.5623114 75.49129724 12 74 C10.8125 71.8125 10.8125 71.8125 10 70 C-16.09679824 72.13035088 -43.46107591 85.57331271 -61 105 C-63.34077469 107.89185591 -65.4629491 110.90956737 -67.51171875 114.015625 C-68.00285156 114.67046875 -68.49398437 115.3253125 -69 116 C-69.66 116 -70.32 116 -71 116 C-72.29074548 114.35912126 -73.50761027 112.65981448 -74.6875 110.9375 C-92.28982704 86.26900584 -121.57065009 75.62274629 -150 69 C-150.24878906 69.65742188 -150.49757812 70.31484375 -150.75390625 70.9921875 C-152.32569317 74.78615594 -154.11224259 78.4476924 -155.9375 82.125 C-156.28490234 82.84042969 -156.63230469 83.55585938 -156.99023438 84.29296875 C-157.50360352 85.32744141 -157.50360352 85.32744141 -158.02734375 86.3828125 C-158.33406006 87.00559082 -158.64077637 87.62836914 -158.95678711 88.27001953 C-160.10884561 90.18050081 -161.29955726 91.55748493 -163 93 C-163.66 93 -164.32 93 -165 93 C-164.54979057 87.14727744 -161.96160773 82.91779881 -159 78 C-159.66 78 -160.32 78 -161 78 C-161.66 79.98 -162.32 81.96 -163 84 C-163.99 84 -164.98 84 -166 84 C-166.52432617 84.99330322 -167.04865234 85.98660645 -167.58886719 87.01000977 C-169.54828871 90.72125136 -171.50926893 94.4316675 -173.47070312 98.1418457 C-174.3168269 99.74286044 -175.16253684 101.34409397 -176.0078125 102.94555664 C-177.22805839 105.25726068 -178.44982703 107.56815445 -179.671875 109.87890625 C-180.23149933 110.9402755 -180.23149933 110.9402755 -180.8024292 112.02308655 C-183.11909862 116.39928765 -185.52222138 120.71285537 -188 125 C-189 122 -189 122 -187.5234375 118.5234375 C-186.81789607 117.13518444 -186.10108536 115.75261944 -185.375 114.375 C-185.0039917 113.65296387 -184.6329834 112.93092773 -184.25073242 112.18701172 C-181.97322785 107.77871451 -179.61691423 103.41881686 -177.1640625 99.10546875 C-174.97228957 95.14115463 -172.99482996 91.06605766 -171 87 C-175.75891073 95.05504153 -180.51283829 103.10981021 -185.125 111.25 C-187.70367431 115.78867475 -190.36825251 120.25477535 -193.125 124.6875 C-198.60858447 133.5299141 -203.42187546 142.66143622 -208 152 C-208.99 152 -209.98 152 -211 152 C-213.15295325 143.90824784 -213.34037052 135.90903907 -213.31567383 127.59814453 C-213.31253505 125.39954977 -213.33597112 123.20233364 -213.36132812 121.00390625 C-213.42213227 107.66164639 -211.37629278 95.01221613 -207.1875 82.3125 C-206.92960693 81.51706787 -206.67171387 80.72163574 -206.40600586 79.90209961 C-199.72655388 59.82725501 -188.52957443 42.2870404 -174 27 C-173.54608887 26.51885742 -173.09217773 26.03771484 -172.62451172 25.54199219 C-128.23673129 -21.23740366 -56.16571015 -31.32441892 0 0 Z " fill="#0079BB" transform="translate(266,69)"/>
<path d="M0 0 C1.92992581 1.02357509 3.88588715 1.92811366 5.88085938 2.81762695 C13.79766705 6.38813862 21.2338181 10.19202754 28.40673828 15.11132812 C31.20931132 17.01977927 33.50951317 18.4544241 36.87304688 18.9934082 C37.68257812 19.24348633 38.49210938 19.49356445 39.32617188 19.7512207 C42.79089144 20.0806879 43.91456041 18.98386005 46.62304688 16.8684082 C52.99993169 12.10472342 59.73578642 8.48920924 66.87304688 4.9934082 C67.61167969 4.6015332 68.3503125 4.2096582 69.11132812 3.8059082 C74.17832173 1.15814794 79.06193968 -0.80020226 84.56835938 -2.3269043 C87.79209429 -3.2776329 90.79510222 -4.66348867 93.87304688 -6.0065918 C121.75646615 -17.42155235 157.37473592 -14.9176777 185.89648438 -7.8503418 C187.87304688 -7.0065918 187.87304688 -7.0065918 189.87304688 -4.0065918 C185.22659926 -0.87917513 181.21115522 1.22379741 175.87304688 2.9309082 C168.53826125 5.87217562 166.24466561 11.40264466 162.89013672 18.08959961 C146.68594623 48.42091921 114.5893107 71.11504414 82.41308594 81.23217773 C45.71365071 92.23072051 7.00292076 88.82064152 -26.93945312 71.1184082 C-48.16758505 59.55518502 -71.22387327 41.32167009 -82.06445312 19.1027832 C-88.46906109 6.58408253 -97.14998863 2.55980658 -110.15258789 -2.11547852 C-112.12695312 -3.0065918 -112.12695312 -3.0065918 -113.12695312 -5.0065918 C-80.31657422 -19.45237923 -31.70981291 -16.92629402 0 0 Z " fill="#0079BB" transform="translate(156.126953125,250.006591796875)"/>
<path d="M0 0 C2.42089434 2.90507321 4.31573522 5.63147043 6 9 C6.99 9.495 6.99 9.495 8 10 C8.66 9.34 9.32 8.68 10 8 C11.98 11.3 13.96 14.6 16 18 C14.9047067 14.7141201 13.38357248 11.87923595 11.7421875 8.83984375 C11.49726563 8.23269531 11.25234375 7.62554687 11 7 C11.33 6.34 11.66 5.68 12 5 C19.85396722 18.43319773 27.69023057 31.87333725 35.36621094 45.40917969 C36.90882968 48.12808286 38.45373786 50.84566723 40 53.5625 C40.51224121 54.46291016 41.02448242 55.36332031 41.55224609 56.29101562 C45.11425079 62.52366896 48.81041513 68.64802859 52.671875 74.69921875 C54 77 54 77 54 79 C55.485 78.505 55.485 78.505 57 78 C57.09796875 78.67546875 57.1959375 79.3509375 57.296875 80.046875 C58.20858449 85.48569366 58.90347909 88.17658048 63 92 C63.25 95.25 63.25 95.25 63 98 C57.52632504 98.1400384 52.55186676 97.71238919 47.1875 96.5625 C23.21583943 91.58543507 -3.65730623 92.32568972 -27 100 C-27.7940625 100.2475 -28.588125 100.495 -29.40625 100.75 C-33.34210914 102.00947493 -37.13669698 103.43244701 -40.9140625 105.1171875 C-44.85960675 106.78702458 -48.89724223 108.23033204 -52.9140625 109.71875 C-55.82201386 110.92610196 -58.33365917 112.33856149 -61 114 C-62.22244059 114.59730016 -63.4513815 115.18154637 -64.6875 115.75 C-68.9971784 117.85586558 -72.75677835 120.56640466 -76.60546875 123.4140625 C-79.04158924 125.02754524 -81.20503119 126.14915843 -84 127 C-84.99 126.67 -85.98 126.34 -87 126 C-87.62519531 125.87625 -88.25039062 125.7525 -88.89453125 125.625 C-91.54049071 124.83955749 -93.40228944 123.54978173 -95.6875 122 C-100.54180194 118.83981686 -105.50511927 116.02027544 -110.625 113.3125 C-111.31682373 112.94447266 -112.00864746 112.57644531 -112.72143555 112.19726562 C-121.09254087 107.80858837 -129.54948708 104.28958811 -138.5625 101.4375 C-139.52051514 101.13376465 -140.47853027 100.8300293 -141.46557617 100.51708984 C-149.56616147 98.01409621 -157.60194613 96.18282449 -166 95 C-166.64428955 94.9086377 -167.2885791 94.81727539 -167.95239258 94.72314453 C-186.7323366 92.32883697 -213.89554409 90.77494038 -231.09912109 100.14306641 C-233 101 -233 101 -236 100 C-235.01057399 96.04229597 -233.5904511 93.31764293 -231.0625 90.1875 C-227.82871647 86.09980787 -226.32004259 82.00226664 -225 77 C-224.01 77 -223.02 77 -222 77 C-221.73703125 76.12730469 -221.4740625 75.25460938 -221.203125 74.35546875 C-220.01323388 71.03690879 -218.57319317 68.32241124 -216.75 65.3125 C-214.53313052 61.59505016 -212.35908781 57.87631942 -210.3125 54.0625 C-201.32998091 37.46280472 -191.73290518 21.16968273 -182 5 C-181.505 5.99 -181.505 5.99 -181 7 C-182.09408233 9.32188584 -183.24329016 11.51780406 -184.5 13.75 C-185.24635983 15.10981755 -185.99111619 16.47051625 -186.734375 17.83203125 C-187.11400391 18.52506348 -187.49363281 19.2180957 -187.88476562 19.93212891 C-189.5752953 23.06671436 -191.16940665 26.24639115 -192.75 29.4375 C-193.28109375 30.50871094 -193.8121875 31.57992187 -194.359375 32.68359375 C-195.17148438 34.32521484 -195.17148438 34.32521484 -196 36 C-197.33119091 38.66773991 -198.66512352 41.33410259 -200 44 C-199.67837891 43.40687012 -199.35675781 42.81374023 -199.02539062 42.20263672 C-195.87698128 36.40098513 -192.71635106 30.60616992 -189.54345703 24.81787109 C-188.5915161 23.07992388 -187.6415475 21.34089262 -186.69482422 19.60009766 C-185.61827767 17.62395261 -184.53031815 15.65467897 -183.4375 13.6875 C-182.83808594 12.59824219 -182.23867187 11.50898438 -181.62109375 10.38671875 C-180 8 -180 8 -177 7 C-175.79117904 4.99983534 -175.79117904 4.99983534 -175 3 C-174.34 3 -173.68 3 -173 3 C-174.08001378 5.82465142 -175.19657924 8.3299723 -176.75 10.9375 C-177.36875 12.4534375 -177.36875 12.4534375 -178 14 C-177.58492187 14.83015625 -177.16984375 15.6603125 -176.7421875 16.515625 C-175.53933943 22.16268013 -178.61615702 25.96420402 -181.375 30.8125 C-182.50539242 32.87998839 -183.6329817 34.94901177 -184.7578125 37.01953125 C-185.31500977 38.03611816 -185.87220703 39.05270508 -186.44628906 40.10009766 C-188.53566342 43.9997816 -190.4160678 47.97539291 -192.25 52 C-195.10483956 58.21715648 -198.18806447 64.26972726 -201.47558594 70.26953125 C-202.87570566 72.83284931 -204.07347118 75.22041355 -205 78 C-204.07703125 77.7834375 -203.1540625 77.566875 -202.203125 77.34375 C-184.58207376 73.477673 -162.33951889 72.20958104 -145.5859375 79.890625 C-142.47474573 81.22533567 -139.31000454 82.10694429 -136.0625 83.0625 C-125.08465638 86.48453528 -115.08178489 92.82704152 -105.62890625 99.27734375 C-103.05612505 101.12321412 -103.05612505 101.12321412 -100 102 C-99.401875 102.763125 -98.80375 103.52625 -98.1875 104.3125 C-95.74875372 107.30867401 -93.22176226 108.89599199 -90 111 C-88.29671681 112.6292274 -86.61838719 114.28641357 -85 116 C-81.49824857 114.48897027 -79.134517 112.4237042 -76.375 109.8125 C-71.51970367 105.37539708 -66.50578632 101.58758963 -61 98 C-60.01257813 97.35160156 -59.02515625 96.70320313 -58.0078125 96.03515625 C-40.85758207 85.11184322 -20.12821371 75.8061466 0.57421875 75.8671875 C1.2980928 75.86623077 2.02196686 75.86527405 2.76777649 75.86428833 C4.29660123 75.86360987 5.82542889 75.8654408 7.35424805 75.86962891 C9.66266578 75.87494283 11.97088546 75.86969282 14.27929688 75.86328125 C21.9109726 75.86018837 29.41615509 76.04729366 37 77 C37 76.01 37 75.02 37 74 C36.34 74 35.68 74 35 74 C32.33203125 68.6640625 29.6640625 63.328125 26.99609375 57.9921875 C26.65731201 57.31470459 26.31853027 56.63722168 25.96948242 55.93920898 C25.28058275 54.56124666 24.59194409 53.18315382 23.90356445 51.80493164 C22.43642768 48.86818282 20.96624015 45.93326338 19.484375 43.00390625 C19.05640625 42.15699219 18.6284375 41.31007812 18.1875 40.4375 C17.83042969 39.73496094 17.47335937 39.03242188 17.10546875 38.30859375 C16.27788372 36.58031547 15.51308575 34.82172993 14.78125 33.05078125 C12.01309726 26.52102723 8.62419234 20.25721923 5.3894043 13.95019531 C4.5003482 12.21431743 3.61919357 10.47439979 2.73828125 8.734375 C2.21274658 7.70538086 1.68721191 6.67638672 1.14575195 5.61621094 C0 3 0 3 0 0 Z " fill="#0C7EB7" transform="translate(280,144)"/>
<path d="M0 0 C0.495 0.99 0.495 0.99 1 2 C-0.09408233 4.32188584 -1.24329016 6.51780406 -2.5 8.75 C-3.24635983 10.10981755 -3.99111619 11.47051625 -4.734375 12.83203125 C-5.11400391 13.52506348 -5.49363281 14.2180957 -5.88476562 14.93212891 C-7.5752953 18.06671436 -9.16940665 21.24639115 -10.75 24.4375 C-11.28109375 25.50871094 -11.8121875 26.57992187 -12.359375 27.68359375 C-13.17148438 29.32521484 -13.17148438 29.32521484 -14 31 C-15.33119091 33.66773991 -16.66512352 36.33410259 -18 39 C-17.66266846 38.38068604 -17.32533691 37.76137207 -16.9777832 37.12329102 C-15.42307205 34.26948503 -13.86778931 31.41599093 -12.3125 28.5625 C-11.78205078 27.58861328 -11.25160156 26.61472656 -10.70507812 25.61132812 C-7.49663554 19.72590277 -4.2665238 13.85339843 -1 8 C1.02099609 11.70996094 1.02099609 11.70996094 0.83203125 14.3203125 C-0.21490723 17.69214254 -1.69696967 20.74946448 -3.3125 23.875 C-3.65933838 24.55699463 -4.00617676 25.23898926 -4.36352539 25.94165039 C-5.56705049 28.29897676 -6.78217566 30.65002971 -8 33 C-8.46438477 33.89734863 -8.92876953 34.79469727 -9.40722656 35.71923828 C-13.78136123 44.15920493 -18.16220714 52.59604539 -22.6640625 60.96875 C-23.07148682 61.72873291 -23.47891113 62.48871582 -23.89868164 63.27172852 C-24.64333779 64.65747316 -25.39213665 66.04100463 -26.14624023 67.42163086 C-28.51663948 71.83309626 -30.32205099 76.2797883 -32 81 C-31.09121094 80.70996094 -31.09121094 80.70996094 -30.1640625 80.4140625 C-28.90722656 80.02347656 -28.90722656 80.02347656 -27.625 79.625 C-26.81289062 79.36976563 -26.00078125 79.11453125 -25.1640625 78.8515625 C1.87745467 71.57372208 31.30432347 76.4859523 55.6081543 90.01416016 C66.49448042 96.32742797 76.43129027 103.34002314 85.6953125 111.87890625 C88.72833621 114.67031621 91.85618959 117.33459552 95 120 C94.01 120.33 93.02 120.66 92 121 C90.1875 119.91796875 90.1875 119.91796875 88 118.1875 C83.04908386 114.55634207 77.87623237 111.65513706 72.4375 108.8125 C71.64666016 108.39701904 70.85582031 107.98153809 70.04101562 107.5534668 C61.39252242 103.07247969 52.72827496 99.37748345 43.4375 96.4375 C42.47948486 96.13376465 41.52146973 95.8300293 40.53442383 95.51708984 C32.43383853 93.01409621 24.39805387 91.18282449 16 90 C15.35571045 89.9086377 14.7114209 89.81727539 14.04760742 89.72314453 C-4.7323366 87.32883697 -31.89554409 85.77494038 -49.09912109 95.14306641 C-51 96 -51 96 -54 95 C-53.01057399 91.04229597 -51.5904511 88.31764293 -49.0625 85.1875 C-45.82871647 81.09980787 -44.32004259 77.00226664 -43 72 C-42.01 72 -41.02 72 -40 72 C-39.73703125 71.12730469 -39.4740625 70.25460938 -39.203125 69.35546875 C-38.01323388 66.03690879 -36.57319317 63.32241124 -34.75 60.3125 C-32.53313052 56.59505016 -30.35908781 52.87631942 -28.3125 49.0625 C-19.32998091 32.46280472 -9.73290518 16.16968273 0 0 Z " fill="#F1F9FB" transform="translate(98,149)"/>
<path d="M0 0 C2.20060416 2.0492856 3.70460808 3.98966653 5.12890625 6.6328125 C5.51868652 7.34735596 5.9084668 8.06189941 6.31005859 8.7980957 C6.72336426 9.56597412 7.13666992 10.33385254 7.5625 11.125 C10.9078239 17.24540819 14.31331068 23.31530181 17.875 29.3125 C22.22296811 36.63948741 26.44739947 44.03232288 30.65283203 51.44189453 C34.17754559 57.62711666 37.84252227 63.69834282 41.671875 69.69921875 C43 72 43 72 43 74 C43.99 73.67 44.98 73.34 46 73 C46.09796875 73.67546875 46.1959375 74.3509375 46.296875 75.046875 C47.20858449 80.48569366 47.90347909 83.17658048 52 87 C52.25 90.25 52.25 90.25 52 93 C46.52632504 93.1400384 41.55186676 92.71238919 36.1875 91.5625 C12.21583943 86.58543507 -14.65730623 87.32568972 -38 95 C-39.19109375 95.37125 -39.19109375 95.37125 -40.40625 95.75 C-44.34210914 97.00947493 -48.13669698 98.43244701 -51.9140625 100.1171875 C-55.85960675 101.78702458 -59.89724223 103.23033204 -63.9140625 104.71875 C-66.82201386 105.92610196 -69.33365917 107.33856149 -72 109 C-73.22244059 109.59730016 -74.4513815 110.18154637 -75.6875 110.75 C-80.05835009 112.88556744 -83.88502257 115.64098201 -87.80078125 118.51171875 C-90 120 -90 120 -93 121 C-85.75068533 103.71019068 -56.20394356 89.60764496 -40.12109375 82.77734375 C-18.18696319 74.38043496 7.56461675 72.72509466 30 80 C31.3537578 80.62414906 32.7004684 81.26963034 34 82 C29.6102554 73.10730823 25.12068183 64.27512981 20.5 55.5 C16.50703727 47.91364543 12.59133631 40.29691975 8.796875 32.609375 C7.60953124 30.20635607 6.39083393 27.82402861 5.140625 25.453125 C4.57859375 24.37546875 4.0165625 23.2978125 3.4375 22.1875 C2.69306641 20.78564453 2.69306641 20.78564453 1.93359375 19.35546875 C1 17 1 17 2 14 C4.64 18.62 7.28 23.24 10 28 C9.01 26.02 8.02 24.04 7 22 C7.33 21.34 7.66 20.68 8 20 C8.60328125 21.08539063 9.2065625 22.17078125 9.828125 23.2890625 C10.63528777 24.73444699 11.44258668 26.17975546 12.25 27.625 C12.64574219 28.33785156 13.04148437 29.05070312 13.44921875 29.78515625 C15.80145209 33.9883273 18.27052278 38.03098955 21 42 C16.7100828 33.08148793 11.99627027 24.41287072 7.22753906 15.74365234 C0 2.59064532 0 2.59064532 0 0 Z " fill="#ECF7FA" transform="translate(291,149)"/>
<path d="M0 0 C2.20060416 2.0492856 3.70460808 3.98966653 5.12890625 6.6328125 C5.51868652 7.34735596 5.9084668 8.06189941 6.31005859 8.7980957 C6.72336426 9.56597412 7.13666992 10.33385254 7.5625 11.125 C10.9078239 17.24540819 14.31331068 23.31530181 17.875 29.3125 C22.22296811 36.63948741 26.44739947 44.03232288 30.65283203 51.44189453 C34.17754559 57.62711666 37.84252227 63.69834282 41.671875 69.69921875 C43 72 43 72 43 74 C43.99 73.67 44.98 73.34 46 73 C46 74.32 46 75.64 46 77 C44.35 77 42.7 77 41 77 C40.505 78.485 40.505 78.485 40 80 C37.69 76.04 35.38 72.08 33 68 C33.33 69.98 33.66 71.96 34 74 C33.34 74 32.68 74 32 74 C31.67 74.66 31.34 75.32 31 76 C30.5153125 75.01902344 30.030625 74.03804688 29.53125 73.02734375 C26.1121868 66.13407117 22.65100919 59.27370228 19 52.5 C15.50181984 46.00387085 12.16945619 39.4353782 8.90234375 32.8203125 C7.67560921 30.33931852 6.41994747 27.87781331 5.12890625 25.4296875 C4.57074219 24.35976562 4.01257813 23.28984375 3.4375 22.1875 C2.94121094 21.25292969 2.44492187 20.31835938 1.93359375 19.35546875 C1 17 1 17 2 14 C4.64 18.62 7.28 23.24 10 28 C9.01 26.02 8.02 24.04 7 22 C7.33 21.34 7.66 20.68 8 20 C8.60328125 21.08539063 9.2065625 22.17078125 9.828125 23.2890625 C10.63528777 24.73444699 11.44258668 26.17975546 12.25 27.625 C12.64574219 28.33785156 13.04148437 29.05070312 13.44921875 29.78515625 C15.80145209 33.9883273 18.27052278 38.03098955 21 42 C16.7100828 33.08148793 11.99627027 24.41287072 7.22753906 15.74365234 C0 2.59064532 0 2.59064532 0 0 Z " fill="#CBEFF9" transform="translate(291,149)"/>
<path d="M0 0 C2.42089434 2.90507321 4.31573522 5.63147043 6 9 C6.66 9.33 7.32 9.66 8 10 C8.66 9.34 9.32 8.68 10 8 C10.38671875 8.67546875 10.7734375 9.3509375 11.171875 10.046875 C11.69265625 10.93890625 12.2134375 11.8309375 12.75 12.75 C13.51570313 14.07257813 13.51570313 14.07257813 14.296875 15.421875 C15.85756748 18.0077556 15.85756748 18.0077556 17.88671875 19.7421875 C21.09265161 23.1673801 22.94735887 27.21448251 25.0625 31.375 C25.49626953 32.21289062 25.93003906 33.05078125 26.37695312 33.9140625 C27.21638255 35.5392592 28.04949846 37.1677364 28.87548828 38.79980469 C29.84082551 40.68856263 30.85165013 42.55395034 31.87109375 44.4140625 C33 47 33 47 32 50 C27.71 42.08 23.42 34.16 19 26 C20.485 30.455 20.485 30.455 22 35 C19.30212925 32.30212925 17.71384075 30.06590529 15.8125 26.8125 C15.28269531 25.91144531 14.75289063 25.01039063 14.20703125 24.08203125 C13.80871094 23.39496094 13.41039062 22.70789063 13 22 C17.92229989 31.94747742 22.88305013 41.87095638 28.0625 51.6875 C28.47169678 52.46375732 28.88089355 53.24001465 29.30249023 54.03979492 C31.35500661 57.92235353 33.42684305 61.79340633 35.5234375 65.65234375 C35.92941162 66.40491455 36.33538574 67.15748535 36.75366211 67.93286133 C37.51130261 69.33580092 38.27461541 70.73570125 39.04516602 72.1315918 C41.6395841 76.94633216 43.37575543 81.77594066 45 87 C39.72 85.68 34.44 84.36 29 83 C29 81.68 29 80.36 29 79 C31.90600261 77.74335022 33.79604584 77 37 77 C37 76.01 37 75.02 37 74 C36.34 74 35.68 74 35 74 C32.33203125 68.6640625 29.6640625 63.328125 26.99609375 57.9921875 C26.65731201 57.31470459 26.31853027 56.63722168 25.96948242 55.93920898 C25.28058275 54.56124666 24.59194409 53.18315382 23.90356445 51.80493164 C22.43642768 48.86818282 20.96624015 45.93326338 19.484375 43.00390625 C19.05640625 42.15699219 18.6284375 41.31007812 18.1875 40.4375 C17.65189453 39.38369141 17.65189453 39.38369141 17.10546875 38.30859375 C16.27788372 36.58031547 15.51308575 34.82172993 14.78125 33.05078125 C12.01309726 26.52102723 8.62419234 20.25721923 5.3894043 13.95019531 C4.5003482 12.21431743 3.61919357 10.47439979 2.73828125 8.734375 C2.21274658 7.70538086 1.68721191 6.67638672 1.14575195 5.61621094 C0 3 0 3 0 0 Z " fill="#0B7CB2" transform="translate(280,144)"/>
<path d="M0 0 C0.495 0.99 0.495 0.99 1 2 C-0.09408233 4.32188584 -1.24329016 6.51780406 -2.5 8.75 C-3.24635983 10.10981755 -3.99111619 11.47051625 -4.734375 12.83203125 C-5.11400391 13.52506348 -5.49363281 14.2180957 -5.88476562 14.93212891 C-7.5752953 18.06671436 -9.16940665 21.24639115 -10.75 24.4375 C-11.54664063 26.04431641 -11.54664063 26.04431641 -12.359375 27.68359375 C-12.90078125 28.77800781 -13.4421875 29.87242187 -14 31 C-15.33119091 33.66773991 -16.66512352 36.33410259 -18 39 C-17.66266846 38.38068604 -17.32533691 37.76137207 -16.9777832 37.12329102 C-15.42307205 34.26948503 -13.86778931 31.41599093 -12.3125 28.5625 C-11.78205078 27.58861328 -11.25160156 26.61472656 -10.70507812 25.61132812 C-7.49663554 19.72590277 -4.2665238 13.85339843 -1 8 C1.02685547 11.69775391 1.02685547 11.69775391 0.78515625 14.41796875 C-0.07284555 17.23955676 -1.2023688 19.69686308 -2.5625 22.3125 C-3.01753906 23.19550781 -3.47257812 24.07851562 -3.94140625 24.98828125 C-4.29074219 25.65214844 -4.64007813 26.31601563 -5 27 C-5.66 27 -6.32 27 -7 27 C-7.43344727 27.84183838 -7.86689453 28.68367676 -8.31347656 29.55102539 C-9.93740641 32.70319386 -11.56272674 35.85463741 -13.18896484 39.00561523 C-13.8897104 40.36405549 -14.58991632 41.72277427 -15.28955078 43.08178711 C-16.30095565 45.04616333 -17.31436029 47.00949705 -18.328125 48.97265625 C-18.63558655 49.57086685 -18.9430481 50.16907745 -19.25982666 50.78541565 C-21.40017672 54.92382094 -23.66774244 58.96807597 -26 63 C-27 60 -27 60 -27 59 C-28.65 61.64 -30.3 64.28 -32 67 C-32.33 66.34 -32.66 65.68 -33 65 C-31.7777386 62.31338678 -30.50343399 59.72973312 -29.125 57.125 C-28.37391055 55.69203412 -27.6263903 54.25719059 -26.8828125 52.8203125 C-26.54652832 52.18367676 -26.21024414 51.54704102 -25.86376953 50.89111328 C-24.96284309 48.91864969 -24.36259332 47.13847022 -24 45 C-24.33 44.34 -24.66 43.68 -25 43 C-24.1706543 41.11499023 -24.1706543 41.11499023 -22.82421875 38.80859375 C-22.33042725 37.95394531 -21.83663574 37.09929687 -21.32788086 36.21875 C-20.78655518 35.3009375 -20.24522949 34.383125 -19.6875 33.4375 C-18.87067749 32.03177734 -18.87067749 32.03177734 -18.03735352 30.59765625 C-16.36639771 27.72690895 -14.68426612 24.86295413 -13 22 C-12.02572365 20.33482145 -11.05174532 18.66946847 -10.078125 17.00390625 C-6.74814898 11.31827386 -3.39802346 5.64527859 0 0 Z " fill="#94CCE0" transform="translate(98,149)"/>
<path d="M0 0 C0.73573242 -0.00095673 1.47146484 -0.00191345 2.22949219 -0.00289917 C3.77929775 -0.00357725 5.32910621 -0.00174898 6.87890625 0.00244141 C9.2422528 0.00779495 11.60540932 0.00248381 13.96875 -0.00390625 C15.47916708 -0.0032454 16.98958405 -0.0019641 18.5 0 C19.2022168 -0.00202423 19.90443359 -0.00404846 20.62792969 -0.00613403 C24.29400866 0.01126472 27.68466138 0.26307026 31.25 1.1328125 C29.61279297 3.60668945 29.61279297 3.60668945 27.25 6.1328125 C24.53955078 6.66870117 24.53955078 6.66870117 21.4453125 6.55078125 C20.31085693 6.52411377 19.17640137 6.49744629 18.00756836 6.4699707 C16.8088208 6.4205835 15.61007324 6.37119629 14.375 6.3203125 C11.92071026 6.2689892 9.46626405 6.22464298 7.01171875 6.1875 C5.83786621 6.16913086 4.66401367 6.15076172 3.45458984 6.13183594 C-5.25268667 6.13448938 -13.36762589 7.82614179 -21.6171875 10.53515625 C-24.37135079 11.30692728 -26.9095858 11.35705573 -29.75 11.1328125 C-30.08 10.1428125 -30.41 9.1528125 -30.75 8.1328125 C-27.03056612 5.70407769 -23.50270474 4.26971321 -19.25 3.0078125 C-18.1465625 2.67523438 -17.043125 2.34265625 -15.90625 2 C-10.51860058 0.51972999 -5.58409967 -0.01609689 0 0 Z " fill="#037EB6" transform="translate(280.75,219.8671875)"/>
<path d="M0 0 C7.25158004 3.40824262 13.81090451 6.90725857 20 12 C20.85207031 12.680625 21.70414063 13.36125 22.58203125 14.0625 C28.91663711 19.16562304 35.00710342 24.5010949 41 30 C40.01 30.33 39.02 30.66 38 31 C36.1875 29.91796875 36.1875 29.91796875 34 28.1875 C29.04908386 24.55634207 23.87623237 21.65513706 18.4375 18.8125 C17.64666016 18.39701904 16.85582031 17.98153809 16.04101562 17.5534668 C8.53353072 13.66366284 1.066563 10.14593436 -7.0625 7.75 C-8.18785156 7.41484375 -9.31320313 7.0796875 -10.47265625 6.734375 C-11.30667969 6.49203125 -12.14070312 6.2496875 -13 6 C-13 5.67 -13 5.34 -13 5 C-11.58376784 4.94552953 -10.16691809 4.90699492 -8.75 4.875 C-7.96109375 4.85179687 -7.1721875 4.82859375 -6.359375 4.8046875 C-3.79268059 5.0171622 -2.2083933 5.71345895 0 7 C0.93423645 3.98968256 1.04449911 3.13349732 0 0 Z " fill="#D8F1F9" transform="translate(152,239)"/>
<path d="M0 0 C0 0.99 0 1.98 0 3 C-1.98 3.33 -3.96 3.66 -6 4 C-6 5.65 -6 7.3 -6 9 C-1.38 8.01 3.24 7.02 8 6 C7 8 7 8 3.9375 9.11328125 C2.62632734 9.51735333 1.31372985 9.91682102 0 10.3125 C-5.36790719 12.00972924 -10.18747123 13.90529983 -15.03125 16.82421875 C-16.95805468 17.97494932 -18.90469479 18.92716424 -20.9375 19.875 C-25.21798774 21.96367173 -28.96746285 24.70142096 -32.80078125 27.51171875 C-35 29 -35 29 -38 30 C-34.39894214 21.41138073 -9.9070039 0 0 0 Z " fill="#C9E9F4" transform="translate(236,240)"/>
<path d="M0 0 C0.33 0.66 0.66 1.32 1 2 C0.41430664 3.74902344 0.41430664 3.74902344 -0.58984375 5.859375 C-0.95811279 6.63853271 -1.32638184 7.41769043 -1.70581055 8.22045898 C-2.11226807 9.05520752 -2.51872559 9.88995605 -2.9375 10.75 C-3.55395386 12.0340271 -3.55395386 12.0340271 -4.18286133 13.34399414 C-7.25057632 19.65453681 -10.60366542 25.73362304 -14.1484375 31.78515625 C-18.44641302 39.24767493 -22.18250073 46.86055767 -25 55 C-22.03 54.505 -22.03 54.505 -19 54 C-22 56 -22 56 -26 56 C-26.33 54.68 -26.66 53.36 -27 52 C-27.99 52.495 -27.99 52.495 -29 53 C-27.53221228 49.19358399 -25.86478892 45.53460956 -24.0625 41.875 C-23.55847656 40.84117187 -23.05445312 39.80734375 -22.53515625 38.7421875 C-21 36 -21 36 -19.55957031 34.59399414 C-17.78457053 32.77981543 -16.726654 30.98052586 -15.51171875 28.75390625 C-14.82698486 27.50540894 -14.82698486 27.50540894 -14.12841797 26.23168945 C-13.65291504 25.35085693 -13.17741211 24.47002441 -12.6875 23.5625 C-12.19910645 22.66684326 -11.71071289 21.77118652 -11.20751953 20.84838867 C-8.0157905 14.96612434 -4.93879322 9.04403802 -2.0234375 3.01953125 C-1 1 -1 1 0 0 Z " fill="#CAE8F2" transform="translate(91,175)"/>
<path d="M0 0 C2.20060416 2.0492856 3.70460808 3.98966653 5.12890625 6.6328125 C5.71466431 7.70656128 5.71466431 7.70656128 6.31225586 8.80200195 C6.72483643 9.56859131 7.13741699 10.33518066 7.5625 11.125 C11.08984282 17.58117394 14.6935054 23.97929848 18.4375 30.3125 C18.85008057 31.01068848 19.26266113 31.70887695 19.68774414 32.42822266 C20.07824951 33.08741699 20.46875488 33.74661133 20.87109375 34.42578125 C21.23444824 35.04404785 21.59780273 35.66231445 21.97216797 36.29931641 C22.88291973 37.80627526 23.86085668 39.2721751 24.84765625 40.73046875 C26 43 26 43 25.46655273 44.91894531 C24.64952785 48.5632782 27.19283557 51.50036027 29 54.5625 C30.44065605 57.01773572 31.74110876 59.43850603 33 62 C32.67 62.99 32.34 63.98 32 65 C27.34345899 57.90620561 22.83658635 50.6657031 20.75 42.375 C19.03498347 36.21435403 15.74505107 30.95151293 12.5625 25.46484375 C9.73363965 20.58153458 7.0731392 15.61468291 4.4375 10.625 C3.99591553 9.79814697 3.55433105 8.97129395 3.09936523 8.11938477 C2.69403564 7.35037842 2.28870605 6.58137207 1.87109375 5.7890625 C1.50943115 5.10537598 1.14776855 4.42168945 0.77514648 3.71728516 C0 2 0 2 0 0 Z " fill="#ABE0F2" transform="translate(291,149)"/>
<path d="M0 0 C2.90406245 2.70145344 4.71448873 5.67067324 6.71875 9.0625 C7.90023985 11.00790658 7.90023985 11.00790658 9.43164062 12.35620117 C11.18910448 14.19820057 12.20573769 15.97945677 13.375 18.23828125 C14.01695312 19.46901367 14.01695312 19.46901367 14.671875 20.72460938 C15.32929688 22.00561523 15.32929688 22.00561523 16 23.3125 C16.43828125 24.15490234 16.8765625 24.99730469 17.328125 25.86523438 C18.1777079 27.50170504 19.02167877 29.14110431 19.859375 30.78369141 C20.83415629 32.67775489 21.8504744 34.55034396 22.875 36.41796875 C24 39 24 39 23 42 C18.71 34.08 14.42 26.16 10 18 C10.99 20.97 11.98 23.94 13 27 C10.1100548 24.1100548 8.54228374 21.66127296 6.5625 18.125 C4.30772662 14.09969988 1.88165875 10.59439311 -1 7 C-1.875 4.3125 -1.875 4.3125 -2 2 C-1.34 1.34 -0.68 0.68 0 0 Z " fill="#359ECD" transform="translate(289,152)"/>
<path d="M0 0 C1 3 1 3 -0.58203125 6.29296875 C-1.31578218 7.59667503 -2.05973459 8.89467954 -2.8125 10.1875 C-5.10544055 14.12911683 -7.06937214 17.73618542 -8.09765625 22.20703125 C-8.90191588 25.58770701 -9.70534564 27.67103569 -11.625 30.5 C-12.07101563 31.1703125 -12.51703125 31.840625 -12.9765625 32.53125 C-13.48316406 33.25828125 -13.48316406 33.25828125 -14 34 C-15 31 -15 31 -14 28 C-14.66 28 -15.32 28 -16 28 C-14.69850612 23.67237255 -13.02078519 20.05216527 -10.6875 16.1875 C-8.01907072 11.72899942 -5.46865528 7.2392617 -3.04296875 2.64453125 C-2 1 -2 1 0 0 Z " fill="#BDE8F4" transform="translate(74,193)"/>
<path d="M0 0 C14.48210167 -0.21712296 28.66604696 -0.23593697 43 2 C43 1.34 43 0.68 43 0 C43.66 0 44.32 0 45 0 C45.495 1.98 45.495 1.98 46 4 C45.39953857 3.93143799 44.79907715 3.86287598 44.18041992 3.79223633 C36.29717885 2.97713124 28.44065732 2.74777584 20.52270508 2.70483398 C19.05808831 2.69334743 17.59351231 2.6729482 16.12915039 2.64331055 C5.05798611 2.42076833 -4.34453347 3.96800674 -15 7 C-16.66250386 7.35351066 -18.32773314 7.69600585 -20 8 C-19.67 7.01 -19.34 6.02 -19 5 C-16.015625 4.05078125 -16.015625 4.05078125 -12.25 3.3125 C-11.01765625 3.06113281 -9.7853125 2.80976563 -8.515625 2.55078125 C-5.58620321 2.0918385 -2.95203204 1.88169337 0 2 C0 1.34 0 0.68 0 0 Z " fill="#BDE7F6" transform="translate(272,218)"/>
<path d="M0 0 C3.05058666 3.83812683 5.16434275 7.99904407 7.40234375 12.34375 C8.85940983 15.02813909 8.85940983 15.02813909 10.94921875 16.87109375 C13.73118492 19.75903959 15.17388651 22.96195777 16.875 26.5625 C17.56704973 27.99574005 18.26107335 29.42802861 18.95703125 30.859375 C19.4687085 31.9122168 19.4687085 31.9122168 19.99072266 32.98632812 C21.85320718 36.7022866 23.95606142 40.28391716 26.06640625 43.86328125 C27 46 27 46 26 49 C21.545 40.585 21.545 40.585 17 32 C16.01 32.495 16.01 32.495 15 33 C14.50371094 32.00742188 14.00742187 31.01484375 13.49609375 29.9921875 C13.17060547 29.34145264 12.84511719 28.69071777 12.50976562 28.02026367 C11.7902355 26.58071193 11.07149539 25.14076507 10.35351562 23.70043945 C8.55712673 20.09934505 6.75084577 16.50446087 4.91015625 12.92578125 C4.58797119 12.29494629 4.26578613 11.66411133 3.93383789 11.01416016 C3.04308774 9.27178301 2.14668565 7.53229873 1.25 5.79296875 C0 3 0 3 0 0 Z " fill="#76BAD9" transform="translate(292,163)"/>
<path d="M0 0 C0.66 0.99 1.32 1.98 2 3 C-11.53 3 -25.06 3 -39 3 C-39 2.34 -39 1.68 -39 1 C-30.17526003 -3.41236998 -9.38097411 -2.74309734 0 0 Z " fill="#0070A6" transform="translate(215,52)"/>
<path d="M0 0 C4.38648368 1.4252113 7.04164598 3.59811798 10.375 6.75 C14.50609593 10.60718023 18.68231822 14.3539576 23 18 C22.01 18.33 21.02 18.66 20 19 C18.1171875 17.8828125 18.1171875 17.8828125 15.875 16.125 C8.74130658 10.87027047 0.86641051 7.02446292 -7 3 C-3.98968256 2.06576355 -3.13349732 1.95550089 0 3 C0 2.01 0 1.02 0 0 Z " fill="#CAEBF6" transform="translate(170,251)"/>
<path d="M0 0 C7.59 0 15.18 0 23 0 C23.33 0.66 23.66 1.32 24 2 C23.67 2.66 23.34 3.32 23 4 C13.43 4.33 3.86 4.66 -6 5 C-5.01 4.01 -4.02 3.02 -3 2 C-2.01 2 -1.02 2 0 2 C0 1.34 0 0.68 0 0 Z " fill="#007EBC" transform="translate(90,221)"/>
<path d="M0 0 C2.02685547 3.69775391 2.02685547 3.69775391 1.78515625 6.41796875 C0.92715445 9.23955676 -0.2023688 11.69686308 -1.5625 14.3125 C-2.01753906 15.19550781 -2.47257812 16.07851562 -2.94140625 16.98828125 C-3.29074219 17.65214844 -3.64007813 18.31601563 -4 19 C-4.66 19 -5.32 19 -6 19 C-8.475 23.455 -8.475 23.455 -11 28 C-12.35715616 23.92853152 -11.67440775 21.44306549 -9.87670898 17.59643555 C-9.42110596 16.784729 -8.96550293 15.97302246 -8.49609375 15.13671875 C-7.75649414 13.80737305 -7.75649414 13.80737305 -7.00195312 12.45117188 C-6.48568359 11.53916016 -5.96941406 10.62714844 -5.4375 9.6875 C-4.91736328 8.75615234 -4.39722656 7.82480469 -3.86132812 6.86523438 C-2.58023026 4.57336205 -1.29297895 2.28518387 0 0 Z " fill="#54AFDA" transform="translate(97,157)"/>
<path d="M0 0 C11.52164009 1.92710706 11.52164009 1.92710706 17 4 C17 4.99 17 5.98 17 7 C17.99 7 18.98 7 20 7 C19.67 7.99 19.34 8.98 19 10 C16.6568787 9.74438677 14.32156597 9.40729228 12 9 C11.67 8.34 11.34 7.68 11 7 C9.205625 7.061875 9.205625 7.061875 7.375 7.125 C3.57670047 7.13851708 0.55024382 6.42009753 -3 5 C-1.68 4.67 -0.36 4.34 1 4 C0.67 2.68 0.34 1.36 0 0 Z " fill="#0377B7" transform="translate(123,222)"/>
<path d="M0 0 C0.66 0.33 1.32 0.66 2 1 C1.67 2.32 1.34 3.64 1 5 C2.32 5.33 3.64 5.66 5 6 C4.08476562 6.20496094 3.16953125 6.40992188 2.2265625 6.62109375 C0.44378906 7.02521484 0.44378906 7.02521484 -1.375 7.4375 C-3.15003906 7.83775391 -3.15003906 7.83775391 -4.9609375 8.24609375 C-7.89494581 8.85634695 -7.89494581 8.85634695 -10 10 C-10 9.34 -10 8.68 -10 8 C-10.350625 8.515625 -10.70125 9.03125 -11.0625 9.5625 C-13 11 -13 11 -16.6875 10.6875 C-17.780625 10.460625 -18.87375 10.23375 -20 10 C-16.3368352 6.89302252 -12.23735924 5.14633863 -7.875 3.25 C-7.14667969 2.92128906 -6.41835937 2.59257812 -5.66796875 2.25390625 C-3.80561181 1.43804933 -1.9046248 0.71161806 0 0 Z " fill="#1584BB" transform="translate(250,226)"/>
<path d="M0 0 C0.66 0.33 1.32 0.66 2 1 C1.34 1.66 0.68 2.32 0 3 C2.31 3 4.62 3 7 3 C5.71204085 5.57591829 4.7685594 5.64795084 2.125 6.6875 C-2.77832329 8.76650908 -7.0843361 11.48286571 -11.51953125 14.4140625 C-13.63739322 15.76816008 -15.72888882 16.93061898 -18 18 C-16.47790339 14.27086332 -14.25967803 12.19368821 -11.25 9.5625 C-10.36054688 8.78132813 -9.47109375 8.00015625 -8.5546875 7.1953125 C-5.72692811 4.7653419 -2.88899364 2.3568106 0 0 Z " fill="#C3EAF5" transform="translate(216,252)"/>
<path d="M0 0 C4.56248659 -0.02906612 9.1249493 -0.04682113 13.6875 -0.0625 C14.98107422 -0.07087891 16.27464844 -0.07925781 17.60742188 -0.08789062 C19.47817383 -0.09272461 19.47817383 -0.09272461 21.38671875 -0.09765625 C22.53358154 -0.10289307 23.68044434 -0.10812988 24.86206055 -0.11352539 C27.70263777 -0.01075807 30.24043792 0.34683584 33 1 C31.37988281 3.49682617 31.37988281 3.49682617 29 6 C26.15917969 6.3840332 26.15917969 6.3840332 22.921875 6.05078125 C21.76171875 5.94443359 20.6015625 5.83808594 19.40625 5.72851562 C17.59640625 5.52258789 17.59640625 5.52258789 15.75 5.3125 C13.91695313 5.13557617 13.91695313 5.13557617 12.046875 4.95507812 C9.02806282 4.66027225 6.01387375 4.34110362 3 4 C3 3.67 3 3.34 3 3 C9.93 3 16.86 3 24 3 C24 2.34 24 1.68 24 1 C16.08 1 8.16 1 0 1 C0 0.67 0 0.34 0 0 Z " fill="#0274AE" transform="translate(279,220)"/>
<path d="M0 0 C4.02550319 1.3418344 4.88285636 3.4227573 7 7 C7 7.66 7 8.32 7 9 C7.99 8.67 8.98 8.34 10 8 C10 9.32 10 10.64 10 12 C8.35 12 6.7 12 5 12 C4.67 12.99 4.34 13.98 4 15 C-1.05908096 7.12253829 -1.05908096 7.12253829 -0.8125 2.4375 C-0.544375 1.633125 -0.27625 0.82875 0 0 Z " fill="#D2E6EE" transform="translate(327,214)"/>
<path d="M0 0 C0.66 0.66 1.32 1.32 2 2 C2.99 2 3.98 2 5 2 C3.02 5.96 1.04 9.92 -1 14 C-1.33 13.34 -1.66 12.68 -2 12 C-2.66 12 -3.32 12 -4 12 C-4.33 12.99 -4.66 13.98 -5 15 C-6 12 -6 12 -4.78515625 9.08203125 C-4.21667969 8.00308594 -3.64820312 6.92414063 -3.0625 5.8125 C-2.49660156 4.72582031 -1.93070312 3.63914063 -1.34765625 2.51953125 C-0.90292969 1.68808594 -0.45820312 0.85664063 0 0 Z " fill="#1682B6" transform="translate(76,207)"/>
<path d="M0 0 C2.64 0 5.28 0 8 0 C8.33 0.66 8.66 1.32 9 2 C12.04581269 2.46954261 12.04581269 2.46954261 15.5625 2.625 C16.76003906 2.69976562 17.95757812 2.77453125 19.19140625 2.8515625 C20.11824219 2.90054687 21.04507813 2.94953125 22 3 C21.67 3.99 21.34 4.98 21 6 C13.86606248 5.48462048 6.98187183 4.55994099 0 3 C0 2.01 0 1.02 0 0 Z " fill="#0074AB" transform="translate(159,330)"/>
<path d="M0 0 C2.49527243 3.1341223 4.40392194 6.38424782 6.25 9.9375 C6.79140625 10.95714844 7.3328125 11.97679687 7.890625 13.02734375 C9.09936996 16.26626951 9.02825685 17.75381703 8 21 C4.66620177 18.30121096 3.58656708 14.90031075 2 11 C1.4225 9.96875 0.845 8.9375 0.25 7.875 C-1.14803235 4.65952561 -1.06150174 3.28100538 0 0 Z " fill="#2C90B6" transform="translate(308,197)"/>
<path d="M0 0 C0.66 0 1.32 0 2 0 C2.9199404 7.0528764 -0.1257826 11.26938677 -4 17 C-5 14 -5 14 -4 11 C-4.66 11 -5.32 11 -6 11 C-4.125 5.25 -4.125 5.25 -3 3 C-2.01 3 -1.02 3 0 3 C0 2.01 0 1.02 0 0 Z " fill="#D5F2F9" transform="translate(64,210)"/>
<path d="M0 0 C0.99 0 1.98 0 3 0 C4.32002556 2.55886504 5.63113782 5.12167068 6.9375 7.6875 C7.31068359 8.40873047 7.68386719 9.12996094 8.06835938 9.87304688 C9.93965239 13.56505742 11.48269556 16.83693096 12 21 C11.34 21 10.68 21 10 21 C5.24813632 14.54064213 2.51204421 7.53613264 0 0 Z " fill="#288CB7" transform="translate(296,178)"/>
<path d="M0 0 C0.66 0.66 1.32 1.32 2 2 C0.10476847 5.47949481 -1.79129707 8.95853449 -3.6875 12.4375 C-4.48317383 13.89833008 -4.48317383 13.89833008 -5.29492188 15.38867188 C-8.50336446 21.27409723 -11.7334762 27.14660157 -15 33 C-16 30 -16 30 -14.5234375 26.5234375 C-13.81796822 25.13514778 -13.10116393 23.75257802 -12.375 22.375 C-12.00544189 21.65658936 -11.63588379 20.93817871 -11.25512695 20.19799805 C-7.71117905 13.34450874 -4.03280261 6.57983584 0 0 Z " fill="#2F8CB6" transform="translate(93,161)"/>
<path d="M0 0 C0 0.99 0 1.98 0 3 C-2.39469729 3.50604924 -4.79051717 4.00499517 -7.1875 4.5 C-7.86103516 4.64308594 -8.53457031 4.78617187 -9.22851562 4.93359375 C-12.87509793 5.68069842 -16.27648957 6.17352282 -20 6 C-20 5.34 -20 4.68 -20 4 C-20.66 3.67 -21.32 3.34 -22 3 C-19.27172635 2.49465273 -16.54255306 1.99556155 -13.8125 1.5 C-13.04357422 1.35691406 -12.27464844 1.21382813 -11.48242188 1.06640625 C-7.60578227 0.36761285 -3.958529 -0.19039017 0 0 Z " fill="#0073AB" transform="translate(233,330)"/>
<path d="M0 0 C3 1 3 1 4.07495117 2.53466797 C4.39439697 3.18064941 4.71384277 3.82663086 5.04296875 4.4921875 C5.56987305 5.54986328 5.56987305 5.54986328 6.10742188 6.62890625 C6.46384766 7.37011719 6.82027344 8.11132812 7.1875 8.875 C7.55552734 9.60847656 7.92355469 10.34195313 8.30273438 11.09765625 C11 16.59227157 11 16.59227157 11 20 C10.34 20 9.68 20 9 20 C7.48987869 17.23456804 5.99369852 14.46183193 4.5 11.6875 C4.07074219 10.90181641 3.64148438 10.11613281 3.19921875 9.30664062 C2.79316406 8.54931641 2.38710938 7.79199219 1.96875 7.01171875 C1.59169922 6.31522217 1.21464844 5.61872559 0.82617188 4.90112305 C0 3 0 3 0 0 Z " fill="#C6ECF7" transform="translate(315,193)"/>
<path d="M0 0 C2.40909043 2.20151526 3.87800391 4.34632844 5.375 7.23828125 C6.01695312 8.46901367 6.01695312 8.46901367 6.671875 9.72460938 C7.11015625 10.57861328 7.5484375 11.43261719 8 12.3125 C8.43828125 13.15490234 8.8765625 13.99730469 9.328125 14.86523438 C10.1777079 16.50170504 11.02167877 18.14110431 11.859375 19.78369141 C12.83415629 21.67775489 13.8504744 23.55034396 14.875 25.41796875 C16 28 16 28 15 31 C12.85577964 27.07159061 10.71978296 23.1388579 8.59130859 19.2019043 C7.86601807 17.86311859 7.13849092 16.52554209 6.40869141 15.18920898 C5.36030707 13.26859741 4.32003303 11.34378639 3.28125 9.41796875 C2.65283203 8.26063232 2.02441406 7.1032959 1.37695312 5.91088867 C0 3 0 3 0 0 Z " fill="#1E85AE" transform="translate(297,163)"/>
<path d="M0 0 C5.61 0 11.22 0 17 0 C17 0.66 17 1.32 17 2 C19.97 2 22.94 2 26 2 C26 2.66 26 3.32 26 4 C26.763125 4.12375 27.52625 4.2475 28.3125 4.375 C31 5 31 5 34 7 C30.52751745 6.57479806 27.25895874 6.07847235 23.90625 5.0625 C19.20442134 3.68399935 14.40532189 3.05836436 9.5625 2.375 C8.64017578 2.2409375 7.71785156 2.106875 6.76757812 1.96875 C4.5122986 1.64155919 2.25648518 1.31875049 0 1 C0 0.67 0 0.34 0 0 Z " fill="#B5E1F1" transform="translate(105,237)"/>
<path d="M0 0 C0.33 0.66 0.66 1.32 1 2 C0.19555664 3.97119141 0.19555664 3.97119141 -1.08984375 6.3515625 C-1.54423828 7.20234375 -1.99863281 8.053125 -2.46679688 8.9296875 C-3.19479492 10.26386719 -3.19479492 10.26386719 -3.9375 11.625 C-4.41896484 12.5221875 -4.90042969 13.419375 -5.39648438 14.34375 C-6.59058716 16.56643636 -7.79199381 18.78484826 -9 21 C-8.34 21 -7.68 21 -7 21 C-7 22.65 -7 24.3 -7 26 C-6.34 26.33 -5.68 26.66 -5 27 C-5.99 27 -6.98 27 -8 27 C-8 26.01 -8 25.02 -8 24 C-8.66 24 -9.32 24 -10 24 C-10.33 24.66 -10.66 25.32 -11 26 C-11.84770082 23.0978334 -12.18007392 21.48838685 -11.11962891 18.61230469 C-10.65991699 17.80696289 -10.20020508 17.00162109 -9.7265625 16.171875 C-9.2315625 15.29015625 -8.7365625 14.4084375 -8.2265625 13.5 C-7.69804688 12.5925 -7.16953125 11.685 -6.625 10.75 C-6.10421875 9.82703125 -5.5834375 8.9040625 -5.046875 7.953125 C-1.23118622 1.23118622 -1.23118622 1.23118622 0 0 Z " fill="#DDF2F8" transform="translate(72,205)"/>
<path d="M0 0 C0.99 0.66 1.98 1.32 3 2 C1.75698364 4.08778475 0.50599259 6.17004064 -0.75 8.25 C-1.09804688 8.83652344 -1.44609375 9.42304688 -1.8046875 10.02734375 C-3.88518309 13.45630871 -6.03214619 16.2995204 -9 19 C-9.75 17.25 -9.75 17.25 -10 15 C-8.66666667 13.66666667 -7.33333333 12.33333333 -6 11 C-4.85493034 9.1195645 -3.77157673 7.20028285 -2.75 5.25 C-1.96882813 3.77273438 -1.96882813 3.77273438 -1.171875 2.265625 C-0.78515625 1.51796875 -0.3984375 0.7703125 0 0 Z " fill="#0074AC" transform="translate(319,261)"/>
<path d="M0 0 C-3 2 -3 2 -6 3 C-5.01 3.66 -4.02 4.32 -3 5 C-6.3 5.33 -9.6 5.66 -13 6 C-13.33 5.34 -13.66 4.68 -14 4 C-12.02 4 -10.04 4 -8 4 C-8 3.01 -8 2.02 -8 1 C-8.99 1.5259375 -8.99 1.5259375 -10 2.0625 C-14.0513091 3.32853409 -16.83374555 2.70614482 -21 2 C-21 1.67 -21 1.34 -21 1 C-13.7109102 -0.91318843 -7.45067301 -1.04819354 0 0 Z " fill="#1A83B5" transform="translate(284,221)"/>
<path d="M0 0 C3.54187518 3.28538359 5.44807652 7.14616843 7.6875 11.375 C8.10322266 12.13039062 8.51894531 12.88578125 8.94726562 13.6640625 C12.61191821 20.54807328 12.61191821 20.54807328 12 25 C8.80600203 20.91868472 6.61479637 16.56045236 4.3125 11.9375 C3.89677734 11.12216797 3.48105469 10.30683594 3.05273438 9.46679688 C2.66021484 8.68240234 2.26769531 7.89800781 1.86328125 7.08984375 C1.50532471 6.37691162 1.14736816 5.66397949 0.77856445 4.92944336 C0 3 0 3 0 0 Z " fill="#B8E7F6" transform="translate(308,194)"/>
<path d="M0 0 C-10.37357631 5.37129841 -10.37357631 5.37129841 -16 7 C-16.99 5.68 -17.98 4.36 -19 3 C-15.71303767 2.20046862 -14.28976808 1.90341064 -11 3 C-10.67 2.01 -10.34 1.02 -10 0 C-8.68 0 -7.36 0 -6 0 C-3 -1 -3 -1 0 0 Z " fill="#0B7CB4" transform="translate(248,234)"/>
<path d="M0 0 C2.33469686 2.15685945 3.87521105 4.27740889 5.41015625 7.0546875 C5.84263672 7.83457031 6.27511719 8.61445313 6.72070312 9.41796875 C7.38489258 10.63419922 7.38489258 10.63419922 8.0625 11.875 C8.50916016 12.67808594 8.95582031 13.48117188 9.41601562 14.30859375 C11.5229506 18.13194063 13.5232884 21.87855631 15 26 C14.34 26.33 13.68 26.66 13 27 C11.14338238 23.47895964 9.29211667 19.95516463 7.44580078 16.42871094 C6.81673913 15.22904458 6.18621123 14.03014591 5.55419922 12.83203125 C4.64687655 11.11139422 3.74522848 9.38776861 2.84375 7.6640625 C2.29912109 6.62717285 1.75449219 5.5902832 1.19335938 4.52197266 C0 2 0 2 0 0 Z " fill="#68C8EE" transform="translate(291,149)"/>
<path d="M0 0 C0.66 0 1.32 0 2 0 C3.85776765 3.13498292 4.20140476 5.37471432 4 9 C2.35 9 0.7 9 -1 9 C-1.33 9.66 -1.66 10.32 -2 11 C-4.97 10.505 -4.97 10.505 -8 10 C-4.67692308 6.06153846 -4.67692308 6.06153846 -1.25 5.75 C-0.5075 5.8325 0.235 5.915 1 6 C0.67 4.02 0.34 2.04 0 0 Z " fill="#0B7DB6" transform="translate(316,215)"/>
<path d="M0 0 C3.81520418 3.28896912 5.35620209 6.32815331 7 11 C6.67 11.66 6.34 12.32 6 13 C5.34 13 4.68 13 4 13 C3.67 12.67 3.34 12.34 3 12 C3 13.32 3 14.64 3 16 C2.34 15.67 1.68 15.34 1 15 C0.40644386 12.35139573 0.25790731 9.70802678 0 7 C0.66 7 1.32 7 2 7 C1.67 6.401875 1.34 5.80375 1 5.1875 C0 3 0 3 0 0 Z " fill="#DDF0F5" transform="translate(323,216)"/>
<path d="M0 0 C0.33 0 0.66 0 1 0 C1.51137914 5.36948097 0.10796131 7.70370054 -3 12 C-3.71573527 13.64619113 -4.4025696 15.30728055 -5 17 C-5.66 17 -6.32 17 -7 17 C-7 17.66 -7 18.32 -7 19 C-7.66 19 -8.32 19 -9 19 C-7.6077541 14.37324343 -5.70479016 10.35313769 -3.375 6.125 C-2.74335937 4.97257813 -2.11171875 3.82015625 -1.4609375 2.6328125 C-0.97882813 1.76398438 -0.49671875 0.89515625 0 0 Z " fill="#B8E0EF" transform="translate(114,142)"/>
<path d="M0 0 C0.99 0 1.98 0 3 0 C3.72505558 1.42913847 4.42958435 2.86870658 5.125 4.3125 C5.51945312 5.11300781 5.91390625 5.91351563 6.3203125 6.73828125 C6.54460937 7.48464844 6.76890625 8.23101562 7 9 C6.01 10.485 6.01 10.485 5 12 C1.46728273 9.64485515 0.55974396 7.89935989 -1 4 C-0.6875 1.625 -0.6875 1.625 0 0 Z " fill="#0183BF" transform="translate(283,143)"/>
<path d="M0 0 C2.99357002 1.49678501 3.55176584 4.0285712 4.90234375 6.9921875 C6.03782559 9.06918988 7.33652206 10.3410547 9 12 C9.33 12.99 9.66 13.98 10 15 C7.02306374 14.67141984 6.11101442 14.12825269 4.11328125 11.8203125 C3.51902344 10.93085938 2.92476563 10.04140625 2.3125 9.125 C1.40951172 7.79855469 1.40951172 7.79855469 0.48828125 6.4453125 C-1 4 -1 4 -2 1 C-1.34 0.67 -0.68 0.34 0 0 Z " fill="#067AAC" transform="translate(75,266)"/>
<path d="M0 0 C0.66 0 1.32 0 2 0 C2.495 1.98 2.495 1.98 3 4 C2.04710083 3.90150757 2.04710083 3.90150757 1.07495117 3.80102539 C-6.50788863 3.05969201 -14.07451441 2.69824796 -21.6875 2.4375 C-22.87794922 2.39431641 -24.06839844 2.35113281 -25.29492188 2.30664062 C-28.19653034 2.20176321 -31.09820635 2.09959804 -34 2 C-34 1.67 -34 1.34 -34 1 C-29.45834687 0.9708811 -24.9167179 0.9531611 -20.375 0.9375 C-19.08980469 0.92912109 -17.80460937 0.92074219 -16.48046875 0.91210938 C-15.23652344 0.90888672 -13.99257813 0.90566406 -12.7109375 0.90234375 C-11.56931152 0.89710693 -10.42768555 0.89187012 -9.25146484 0.88647461 C-6.08118114 0.99716555 -3.11231146 1.40433244 0 2 C0 1.34 0 0.68 0 0 Z " fill="#78C2E5" transform="translate(315,218)"/>
<path d="M0 0 C0.66 0 1.32 0 2 0 C0.63408831 3.54243452 -0.90931484 6.92627929 -2.625 10.3125 C-3.07101563 11.19550781 -3.51703125 12.07851562 -3.9765625 12.98828125 C-4.31429687 13.65214844 -4.65203125 14.31601563 -5 15 C-5.99 15 -6.98 15 -8 15 C-7.77139942 13.53815942 -7.51629608 12.08044581 -7.25 10.625 C-7.11078125 9.81289062 -6.9715625 9.00078125 -6.828125 8.1640625 C-6 6 -6 6 -4 4.84375 C-3.01 4.42609375 -3.01 4.42609375 -2 4 C-0.73195434 1.9664052 -0.73195434 1.9664052 0 0 Z " fill="#1399CD" transform="translate(105,147)"/>
<path d="M0 0 C0.66 0.99 1.32 1.98 2 3 C-1.73783993 6.73783993 -6.85187497 8.21998106 -12 9 C-10.53403275 5.0570536 -8.62691725 3.98165412 -4.875 2.25 C-3.96492187 1.82203125 -3.05484375 1.3940625 -2.1171875 0.953125 C-1.06917969 0.48132812 -1.06917969 0.48132812 0 0 Z " fill="#0073AC" transform="translate(138,63)"/>
<path d="M0 0 C4.21002246 1.38339992 6.7067203 3.30081702 9.8125 6.4375 C10.60269531 7.21996094 11.39289063 8.00242187 12.20703125 8.80859375 C14 11 14 11 14 14 C12 14 12 14 9.4375 11.75 C7.23284071 9.26269209 6.35596045 8.20364405 6 5 C3.03 4.505 3.03 4.505 0 4 C0 2.68 0 1.36 0 0 Z " fill="#0075AE" transform="translate(284,83)"/>
<path d="M0 0 C8.95653552 2.01768108 17.41586758 4.78729955 26 8 C26 8.33 26 8.66 26 9 C21.78564913 9.30836714 18.9462307 8.73430108 15.140625 6.92578125 C11.36502226 5.29290196 7.40341134 4.17797695 3.4765625 2.96484375 C1 2 1 2 0 0 Z " fill="#C4E9F8" transform="translate(120,227)"/>
<path d="M0 0 C0.66 0 1.32 0 2 0 C0.27692173 4.55897793 -1.83542599 8.88948134 -4 13.25 C-4.35578125 13.9821875 -4.7115625 14.714375 -5.078125 15.46875 C-7.76493227 20.88246613 -7.76493227 20.88246613 -10 22 C-7.707015 14.04199322 -4.05100513 7.18082279 0 0 Z " fill="#87B7CC" transform="translate(75,194)"/>
<path d="M0 0 C0.66 1.65 1.32 3.3 2 5 C1.32582031 4.83628906 0.65164063 4.67257813 -0.04296875 4.50390625 C-3.51367906 3.9124642 -6.79322124 3.90460954 -10.3125 3.9375 C-11.56675781 3.94652344 -12.82101562 3.95554688 -14.11328125 3.96484375 C-15.06589844 3.97644531 -16.01851563 3.98804688 -17 4 C-17 3.67 -17 3.34 -17 3 C-15.10614563 2.49255577 -13.20981334 1.99435426 -11.3125 1.5 C-9.72888672 1.08234375 -9.72888672 1.08234375 -8.11328125 0.65625 C-5.28857328 0.0608285 -2.87163292 -0.12786492 0 0 Z " fill="#BCE4F3" transform="translate(276,138)"/>
<path d="M0 0 C-0.33 1.65 -0.66 3.3 -1 5 C-1.99 5.33 -2.98 5.66 -4 6 C-4.99 7.485 -4.99 7.485 -6 9 C-7.32520503 9.68268138 -8.65812182 10.3507041 -10 11 C-10.33 11.66 -10.66 12.32 -11 13 C-11.66 12.67 -12.32 12.34 -13 12 C-2.63106796 0 -2.63106796 0 0 0 Z " fill="#BAE3F2" transform="translate(215,165)"/>
<path d="M0 0 C0.66 1.32 1.32 2.64 2 4 C0.3990869 5.15037471 -1.20585225 6.29514816 -2.8125 7.4375 C-4.15248047 8.39462891 -4.15248047 8.39462891 -5.51953125 9.37109375 C-8 11 -8 11 -11 12 C-9.49650623 8.33213607 -7.36271208 6.31089607 -4.375 3.75 C-3.14910156 2.69039063 -3.14910156 2.69039063 -1.8984375 1.609375 C-1.27195313 1.07828125 -0.64546875 0.5471875 0 0 Z " fill="#9BD8F1" transform="translate(209,258)"/>
<path d="M0 0 C2.39451296 2.19978763 3.92498058 4.38210729 5.48046875 7.23046875 C6.14272461 8.43413086 6.14272461 8.43413086 6.81835938 9.66210938 C7.27017578 10.49548828 7.72199219 11.32886719 8.1875 12.1875 C8.65091797 13.03248047 9.11433594 13.87746094 9.59179688 14.74804688 C10.73250781 16.82955034 11.86837109 18.91354928 13 21 C12.34 21.66 11.68 22.32 11 23 C9.16002803 19.54515902 7.32916118 16.0855752 5.5 12.625 C4.97535156 11.64015625 4.45070313 10.6553125 3.91015625 9.640625 C3.16572266 8.22910156 3.16572266 8.22910156 2.40625 6.7890625 C1.94541016 5.91975098 1.48457031 5.05043945 1.00976562 4.15478516 C0 2 0 2 0 0 Z " fill="#87D4F1" transform="translate(298,169)"/>
<path d="M0 0 C4.63112842 5.95430797 8.50311925 12.51559624 10 20 C9.01 19.67 8.02 19.34 7 19 C7 17.68 7 16.36 7 15 C6.34 15 5.68 15 5 15 C4.67 13.35 4.34 11.7 4 10 C3.01 9.67 2.02 9.34 1 9 C0.67 6.03 0.34 3.06 0 0 Z " fill="#B4DCEE" transform="translate(290,167)"/>
<path d="M0 0 C0.33 0.66 0.66 1.32 1 2 C-0.19919564 4.52867427 -1.44841236 6.93764544 -2.8125 9.375 C-3.5484934 10.71597227 -4.28417933 12.05711335 -5.01953125 13.3984375 C-5.36580566 14.02459961 -5.71208008 14.65076172 -6.06884766 15.29589844 C-7.09511295 17.17406618 -8.0666273 19.07399285 -9 21 C-9.99 20.67 -10.98 20.34 -12 20 C-8 13.33333333 -4 6.66666667 0 0 Z " fill="#5EBEEB" transform="translate(98,149)"/>
<path d="M0 0 C4.63720719 3.27530896 8.68542782 6.30435607 12 11 C8.50155614 10.36610765 6.15913124 8.94822306 3.25 6.9375 C2.45078125 6.38964844 1.6515625 5.84179688 0.828125 5.27734375 C-0.07679688 4.64505859 -0.07679688 4.64505859 -1 4 C-0.67 2.68 -0.34 1.36 0 0 Z " fill="#97D5EE" transform="translate(181,259)"/>
<path d="M0 0 C2.31 0.33 4.62 0.66 7 1 C7.33 2.65 7.66 4.3 8 6 C5.69 5.67 3.38 5.34 1 5 C0.67 3.35 0.34 1.7 0 0 Z " fill="#F2FAFD" transform="translate(162,248)"/>
<path d="M0 0 C0.66 0 1.32 0 2 0 C3.53723734 2.76203532 5.05184161 5.53585152 6.5625 8.3125 C7.21895508 9.49102539 7.21895508 9.49102539 7.88867188 10.69335938 C8.29794922 11.45068359 8.70722656 12.20800781 9.12890625 12.98828125 C9.51119385 13.68477783 9.89348145 14.38127441 10.28735352 15.09887695 C11 17 11 17 10 20 C0 4.76595745 0 4.76595745 0 0 Z " fill="#84B5CB" transform="translate(313,194)"/>
<path d="M0 0 C0.99 0.66 1.98 1.32 3 2 C1.71520959 3.50589388 0.42195918 5.00457375 -0.875 6.5 C-1.95394531 7.75296875 -1.95394531 7.75296875 -3.0546875 9.03125 C-3.69664062 9.6809375 -4.33859375 10.330625 -5 11 C-5.66 11 -6.32 11 -7 11 C-6.38722388 8.03824877 -5.74627478 6.61941217 -4 4 C-3.34 4 -2.68 4 -2 4 C-1.34 2.68 -0.68 1.36 0 0 Z " fill="#087AAD" transform="translate(306,281)"/>
<path d="M0 0 C6 7.2 6 7.2 6 12 C5.34 12 4.68 12 4 12 C3.67 12.66 3.34 13.32 3 14 C0.39003112 9.65005187 0 4.99823188 0 0 Z " fill="#C6E1EC" transform="translate(319,211)"/>
<path d="M0 0 C0.33 0.66 0.66 1.32 1 2 C0.28735352 3.97119141 0.28735352 3.97119141 -0.87109375 6.3515625 C-1.48500977 7.62773437 -1.48500977 7.62773437 -2.11132812 8.9296875 C-2.7677832 10.26386719 -2.7677832 10.26386719 -3.4375 11.625 C-3.87126953 12.5221875 -4.30503906 13.419375 -4.75195312 14.34375 C-5.82762755 16.56602245 -6.91054931 18.78445719 -8 21 C-8.66 20.01 -9.32 19.02 -10 18 C-6.7 12.06 -3.4 6.12 0 0 Z " fill="#8FD9F6" transform="translate(91,175)"/>
<path d="M0 0 C-0.75925781 0.40992188 -1.51851562 0.81984375 -2.30078125 1.2421875 C-3.29464844 1.78101563 -4.28851563 2.31984375 -5.3125 2.875 C-6.29863281 3.40867188 -7.28476563 3.94234375 -8.30078125 4.4921875 C-11.09586458 6.00722126 -11.09586458 6.00722126 -14 8 C-16.6875 8.125 -16.6875 8.125 -19 8 C-15.46321673 4.94699115 -12.12946439 2.96254995 -7.8125 1.1875 C-6.76707031 0.74792969 -5.72164062 0.30835938 -4.64453125 -0.14453125 C-2 -1 -2 -1 0 0 Z " fill="#B0DFF0" transform="translate(248,147)"/>
<path d="M0 0 C1.65 0 3.3 0 5 0 C5 0.33 5 0.66 5 1 C8.63 1.33 12.26 1.66 16 2 C16 2.33 16 2.66 16 3 C14.91460937 3.06058594 13.82921875 3.12117187 12.7109375 3.18359375 C11.26561514 3.26806064 9.82030318 3.35270551 8.375 3.4375 C7.66214844 3.47681641 6.94929688 3.51613281 6.21484375 3.55664062 C2.08196318 3.80309681 -1.92269024 4.23470053 -6 5 C-4.6875 3.5 -4.6875 3.5 -3 2 C-2.01 2 -1.02 2 0 2 C0 1.34 0 0.68 0 0 Z " fill="#0175B1" transform="translate(90,221)"/>
<path d="M0 0 C0.99 0.33 1.98 0.66 3 1 C2.45276317 4.37462715 1.9451 6.08235 0 9 C-0.99 9 -1.98 9 -3 9 C-2.5020163 5.26512223 -2.12508244 3.18762365 0 0 Z " fill="#0279AF" transform="translate(97,167)"/>
<path d="M0 0 C1.4391134 0.28359887 2.87625518 0.57721399 4.3125 0.875 C5.11300781 1.03742187 5.91351563 1.19984375 6.73828125 1.3671875 C9 2 9 2 12 4 C7.05632546 5.20577428 3.79137588 4.6290678 -1 3 C-0.67 2.01 -0.34 1.02 0 0 Z " fill="#0073AB" transform="translate(232,56)"/>
<path d="M0 0 C1.22419163 3.93795909 0.48320272 6.16112237 -1 10 C0.32 10.66 1.64 11.32 3 12 C0.36 12.33 -2.28 12.66 -5 13 C-4.39254603 8.14036821 -2.27241033 4.2594482 0 0 Z " fill="#B4DEF2" transform="translate(80,209)"/>
<path d="M0 0 C0.99 0.33 1.98 0.66 3 1 C2.07038578 2.15224028 1.1309875 3.29659176 0.1875 4.4375 C-0.59560547 5.39462891 -0.59560547 5.39462891 -1.39453125 6.37109375 C-3 8 -3 8 -6 9 C-4.25 3.25 -4.25 3.25 -2 1 C-1.34 0.67 -0.68 0.34 0 0 Z " fill="#097BAC" transform="translate(294,294)"/>
<path d="M0 0 C6.6 0.33 13.2 0.66 20 1 C20.33 1.99 20.66 2.98 21 4 C18.4372008 3.68981396 15.8747789 3.37693109 13.3125 3.0625 C12.59126953 2.97548828 11.87003906 2.88847656 11.12695312 2.79882812 C7.37989416 2.33686195 3.69207089 1.80832321 0 1 C0 0.67 0 0.34 0 0 Z " fill="#B6E3F2" transform="translate(111,219)"/>
<path d="M0 0 C-0.33 1.98 -0.66 3.96 -1 6 C-2.65 6 -4.3 6 -6 6 C-6 4.35 -6 2.7 -6 1 C-3 0 -3 0 0 0 Z " fill="#F9FDFD" transform="translate(236,243)"/>
<path d="M0 0 C0.99 0.33 1.98 0.66 3 1 C2.67 1.33 2.34 1.66 2 2 C2.66 2.66 3.32 3.32 4 4 C1.525 5.485 1.525 5.485 -1 7 C-1.99 6.01 -2.98 5.02 -4 4 C-2.68 2.68 -1.36 1.36 0 0 Z " fill="#047AB6" transform="translate(223,241)"/>
<path d="M0 0 C0.66 0.33 1.32 0.66 2 1 C2 2.32 2 3.64 2 5 C-3.61 4.67 -9.22 4.34 -15 4 C-15 3.67 -15 3.34 -15 3 C-13.75283203 3.05220703 -13.75283203 3.05220703 -12.48046875 3.10546875 C-11.39378906 3.13253906 -10.30710937 3.15960938 -9.1875 3.1875 C-8.10855469 3.22230469 -7.02960938 3.25710937 -5.91796875 3.29296875 C-2.98051156 3.26536952 -2.98051156 3.26536952 -1.11328125 1.48828125 C-0.74589844 0.99714844 -0.37851562 0.50601563 0 0 Z " fill="#E4F8FB" transform="translate(313,215)"/>
<path d="M0 0 C0.99 0.99 1.98 1.98 3 3 C2.34 4.98 1.68 6.96 1 9 C2.98 8.67 4.96 8.34 7 8 C4 10 4 10 0 10 C-0.33 8.68 -0.66 7.36 -1 6 C-1.99 6.495 -1.99 6.495 -3 7 C-1.125 2.25 -1.125 2.25 0 0 Z " fill="#B6DAE7" transform="translate(65,221)"/>
<path d="M0 0 C1 3 1 3 -0.21484375 5.91796875 C-0.78332031 6.99691406 -1.35179688 8.07585937 -1.9375 9.1875 C-2.50339844 10.27417969 -3.06929688 11.36085937 -3.65234375 12.48046875 C-4.09707031 13.31191406 -4.54179688 14.14335937 -5 15 C-5.66 14.67 -6.32 14.34 -7 14 C-5.23570801 9.02790438 -2.6060834 4.56561939 0 0 Z " fill="#AFE6F8" transform="translate(81,194)"/>
<path d="M0 0 C0.99 0.33 1.98 0.66 3 1 C4.33599181 4.00598158 5.14345053 6.09147996 4.625 9.375 C4.41875 9.91125 4.2125 10.4475 4 11 C1.9656541 9.58480285 1.09589607 8.45017877 0.578125 6.01953125 C0.33726048 4.01823046 0.16467259 2.0090056 0 0 Z " fill="#0073AD" transform="translate(329,146)"/>
<path d="M0 0 C4.19360449 0.67097672 7.40334352 2.8558394 11 5 C10.01 6.485 10.01 6.485 9 8 C9 7.34 9 6.68 9 6 C8.2575 5.896875 7.515 5.79375 6.75 5.6875 C3.8026481 4.95066203 2.21616926 4.05200858 0 2 C0 1.34 0 0.68 0 0 Z " fill="#0176AE" transform="translate(262,68)"/>
<path d="M0 0 C-1.97420135 2.52259061 -2.96745642 2.9929808 -6.1875 3.6875 C-7.5796875 3.8421875 -7.5796875 3.8421875 -9 4 C-9 3.34 -9 2.68 -9 2 C-9.66 1.67 -10.32 1.34 -11 1 C-3.57142857 -1.42857143 -3.57142857 -1.42857143 0 0 Z " fill="#0677AE" transform="translate(246,327)"/>
<path d="M0 0 C3 1 3 1 4.6875 4.375 C6 8 6 8 6 11 C5.34 11 4.68 11 4 11 C3.32591692 9.73308493 2.66099503 8.46129251 2 7.1875 C1.62875 6.47980469 1.2575 5.77210938 0.875 5.04296875 C0 3 0 3 0 0 Z " fill="#DCF7FC" transform="translate(320,202)"/>
<path d="M0 0 C-0.99 0 -1.98 0 -3 0 C-3.33 0.99 -3.66 1.98 -4 3 C-5.65614657 3.38218767 -7.32457024 3.71395102 -9 4 C-9.33 3.67 -9.66 3.34 -10 3 C-11.32594105 2.63837971 -12.65938457 2.30271961 -14 2 C-12.42085985 1.46658816 -10.83645613 0.94874237 -9.25 0.4375 C-8.36828125 0.14746094 -7.4865625 -0.14257812 -6.578125 -0.44140625 C-3.92165684 -1.01697435 -2.52968894 -0.89248371 0 0 Z " fill="#AEE0F2" transform="translate(271,228)"/>
<path d="M0 0 C0.556875 0.226875 1.11375 0.45375 1.6875 0.6875 C-0.84038007 3.48622437 -2.51661134 5.14523019 -6.3125 5.6875 C-6.6425 4.6975 -6.9725 3.7075 -7.3125 2.6875 C-2.88173077 -0.38942308 -2.88173077 -0.38942308 0 0 Z " fill="#0176AE" transform="translate(257.3125,225.3125)"/>
<path d="M0 0 C2.47141532 2.1490568 3.69898137 3.68879509 4 7 C3.0625 9.25 3.0625 9.25 2 11 C1.34 11 0.68 11 0 11 C-0.33 9.02 -0.66 7.04 -1 5 C-0.34 5 0.32 5 1 5 C0.67 3.35 0.34 1.7 0 0 Z " fill="#B4D8E5" transform="translate(325,208)"/>
<path d="M0 0 C0.99 0 1.98 0 3 0 C3 0.66 3 1.32 3 2 C5.97 2.495 5.97 2.495 9 3 C8.01 4.485 8.01 4.485 7 6 C4.36 5.01 1.72 4.02 -1 3 C-0.67 2.01 -0.34 1.02 0 0 Z " fill="#0076AC" transform="translate(140,323)"/>
<path d="M0 0 C4.29 0 8.58 0 13 0 C9.83759418 2.10827055 8.49342531 2.33817465 4.8125 2.625 C3.46091797 2.73714844 3.46091797 2.73714844 2.08203125 2.8515625 C1.05142578 2.92503906 1.05142578 2.92503906 0 3 C0 2.01 0 1.02 0 0 Z " fill="#BCE6F6" transform="translate(62,237)"/>
<path d="M0 0 C0.16682272 4.92127034 0.24828052 8.50343896 -2 13 C-2.66 12.67 -3.32 12.34 -4 12 C-3.67 11.34 -3.34 10.68 -3 10 C-2.93049459 8.45976004 -2.91547643 6.91665012 -2.9375 5.375 C-2.94652344 4.55773437 -2.95554687 3.74046875 -2.96484375 2.8984375 C-2.97644531 2.27195313 -2.98804688 1.64546875 -3 1 C-1 0 -1 0 0 0 Z " fill="#157EB2" transform="translate(338,210)"/>
<path d="M0 0 C2.954889 3.5458668 5.45934985 7.63781033 7 12 C6.67 12.99 6.34 13.98 6 15 C4.98965502 13.25595212 3.99207578 11.50450439 3 9.75 C2.1646875 8.28820312 2.1646875 8.28820312 1.3125 6.796875 C0 4 0 4 0 0 Z " fill="#4B97B8" transform="translate(306,179)"/>
<path d="M0 0 C0.763125 0.0825 1.52625 0.165 2.3125 0.25 C2.3125 1.24 2.3125 2.23 2.3125 3.25 C-0.39629335 4.60439668 -2.69683268 4.31501451 -5.6875 4.25 C-3.34903846 0.31153846 -3.34903846 0.31153846 0 0 Z " fill="#EFFBFE" transform="translate(220.6875,251.75)"/>
<path d="M0 0 C1.32 0.33 2.64 0.66 4 1 C-0.455 4.465 -0.455 4.465 -5 8 C-5.33 6.68 -5.66 5.36 -6 4 C-4.35 3.67 -2.7 3.34 -1 3 C-0.67 2.01 -0.34 1.02 0 0 Z " fill="#DAF3FD" transform="translate(211,245)"/>
<path d="M0 0 C2 3 2 3 1.8125 5 C0.885644 7.2814917 -0.08360049 8.4668804 -2 10 C-2.66 10 -3.32 10 -4 10 C-2.8905928 6.51329166 -1.73662334 3.22515763 0 0 Z " fill="#1584B9" transform="translate(81,197)"/>
<path d="M0 0 C1 2 1 2 0.328125 4.34765625 C-0.02765625 5.24355469 -0.3834375 6.13945312 -0.75 7.0625 C-1.26820312 8.41021484 -1.26820312 8.41021484 -1.796875 9.78515625 C-3 12 -3 12 -6 13 C-4.31326082 8.50202887 -2.18326108 4.27113698 0 0 Z " fill="#AADDEF" transform="translate(100,170)"/>
<path d="M0 0 C0.66 0.33 1.32 0.66 2 1 C0.5023304 3.49824035 -1.01558218 5.86004673 -3 8 C-5.8125 8.4375 -5.8125 8.4375 -8 8 C-5.33333333 5.33333333 -2.66666667 2.66666667 0 0 Z " fill="#2B8CBC" transform="translate(203,254)"/>
<path d="M0 0 C6.52307692 0.61538462 6.52307692 0.61538462 8.9375 2.5625 C9.288125 3.036875 9.63875 3.51125 10 4 C7 5 7 5 5.17578125 4.22265625 C3.45052083 3.1484375 1.72526042 2.07421875 0 1 C0 0.67 0 0.34 0 0 Z " fill="#0071A6" transform="translate(43,245)"/>
<path d="M0 0 C2.31 0.33 4.62 0.66 7 1 C6.01 1.495 6.01 1.495 5 2 C4.67 2.99 4.34 3.98 4 5 C2.68 4.34 1.36 3.68 0 3 C0 2.01 0 1.02 0 0 Z " fill="#0175B3" transform="translate(230,236)"/>
<path d="M0 0 C0.66 0.99 1.32 1.98 2 3 C1.34 3 0.68 3 0 3 C0.75150023 6.27773504 0.75150023 6.27773504 4 8 C1.69 8.33 -0.62 8.66 -3 9 C-2.30058404 5.85262818 -1.23921302 2.97411124 0 0 Z " fill="#1E88B9" transform="translate(69,221)"/>
<path d="M0 0 C0.66 0.66 1.32 1.32 2 2 C-0.97 6.95 -0.97 6.95 -4 12 C-5 9 -5 9 -4.00390625 6.73828125 C-3.52824219 5.93777344 -3.05257812 5.13726562 -2.5625 4.3125 C-2.08941406 3.50425781 -1.61632813 2.69601563 -1.12890625 1.86328125 C-0.75636719 1.24839844 -0.38382813 0.63351563 0 0 Z " fill="#C8D8DE" transform="translate(64,215)"/>
<path d="M0 0 C0.33 0 0.66 0 1 0 C1.33 3.63 1.66 7.26 2 11 C0.68 10.34 -0.64 9.68 -2 9 C-2.125 5.625 -2.125 5.625 -2 2 C-1.34 1.34 -0.68 0.68 0 0 Z " fill="#0076AC" transform="translate(56,207)"/>
<path d="M0 0 C3.317124 4.422832 3.30466674 5.71910976 3 11 C2.01 11.33 1.02 11.66 0 12 C0 8.04 0 4.08 0 0 Z " fill="#006EAE" transform="translate(336,200)"/>
<path d="M0 0 C2.40575607 2.18517099 3.79535581 4.25919671 5.1875 7.1875 C5.53167969 7.90292969 5.87585938 8.61835938 6.23046875 9.35546875 C6.48441406 9.89816406 6.73835938 10.44085938 7 11 C6.01 11.495 6.01 11.495 5 12 C4.15885829 10.56705502 3.32734313 9.12845595 2.5 7.6875 C1.80390625 6.48673828 1.80390625 6.48673828 1.09375 5.26171875 C0 3 0 3 0 0 Z " fill="#B0E1F5" transform="translate(310,191)"/>
<path d="M0 0 C0.66 0 1.32 0 2 0 C0.66666667 3.33333333 -0.66666667 6.66666667 -2 10 C-2.99 10 -3.98 10 -5 10 C-3.66749209 6.4124787 -2.169283 3.1635377 0 0 Z " fill="#93D7F0" transform="translate(86,170)"/>
<path d="M0 0 C0.66 0.33 1.32 0.66 2 1 C-0.20866368 4.4873637 -2.04746952 5.81424086 -6 7 C-6.99 7 -7.98 7 -9 7 C-6.03 4.69 -3.06 2.38 0 0 Z " fill="#BBE7F3" transform="translate(224,157)"/>
<path d="M0 0 C0.66 0 1.32 0 2 0 C1.67 2.64 1.34 5.28 1 8 C0.01 8 -0.98 8 -2 8 C-1.125 1.125 -1.125 1.125 0 0 Z " fill="#0071AC" transform="translate(58,157)"/>
<path d="M0 0 C0.66 0.33 1.32 0.66 2 1 C2 1.66 2 2.32 2 3 C-1.465 4.485 -1.465 4.485 -5 6 C-5.33 5.01 -5.66 4.02 -6 3 C-4.03533587 1.93224776 -2.03144641 0.93446535 0 0 Z " fill="#0074AF" transform="translate(261,318)"/>
<path d="M0 0 C1.32 0.66 2.64 1.32 4 2 C4 2.66 4 3.32 4 4 C3.01 4 2.02 4 1 4 C0.67 4.66 0.34 5.32 0 6 C-0.99 6 -1.98 6 -3 6 C-2.42655063 3.13275314 -2.1385485 2.1385485 0 0 Z " fill="#0277B2" transform="translate(163,237)"/>
<path d="M0 0 C0.33 0.66 0.66 1.32 1 2 C0.00390625 4.3828125 0.00390625 4.3828125 -1.4375 7.125 C-1.91058594 8.03507813 -2.38367188 8.94515625 -2.87109375 9.8828125 C-3.24363281 10.58148438 -3.61617188 11.28015625 -4 12 C-4.66 11.34 -5.32 10.68 -6 10 C-4.02 6.7 -2.04 3.4 0 0 Z " fill="#94D8F4" transform="translate(85,180)"/>
<path d="M0 0 C0.33 0.66 0.66 1.32 1 2 C0.22265625 3.9453125 0.22265625 3.9453125 -0.9375 6.125 C-1.31777344 6.84945312 -1.69804688 7.57390625 -2.08984375 8.3203125 C-2.39019531 8.87460938 -2.69054687 9.42890625 -3 10 C-4.078125 8.16796875 -4.078125 8.16796875 -5 6 C-3.67172689 3.14421282 -2.85356058 1.42678029 0 0 Z " fill="#AAE0F5" transform="translate(82,179)"/>
<path d="M0 0 C0.66 0 1.32 0 2 0 C3.32 2.64 4.64 5.28 6 8 C5.34 8.66 4.68 9.32 4 10 C0 3.375 0 3.375 0 0 Z " fill="#A2DAF0" transform="translate(305,175)"/>
<path d="M0 0 C2.5 2.3125 2.5 2.3125 5 5 C5 5.99 5 6.98 5 8 C2.00675737 6.9024777 1.15389099 6.32317108 -0.25 3.375 C-0.4975 2.59125 -0.745 1.8075 -1 1 C-0.67 0.67 -0.34 0.34 0 0 Z " fill="#0A7BAD" transform="translate(311,110)"/>
<path d="M0 0 C2.31 0 4.62 0 7 0 C4.6870518 2.3129482 3.52095125 2.49580975 0.375 3.125 C-0.44226563 3.29257813 -1.25953125 3.46015625 -2.1015625 3.6328125 C-3.04128906 3.81457031 -3.04128906 3.81457031 -4 4 C-4.33 3.34 -4.66 2.68 -5 2 C-3.35 2 -1.7 2 0 2 C0 1.34 0 0.68 0 0 Z " fill="#C9EDFA" transform="translate(248,242)"/>
<path d="M0 0 C3.3 0.33 6.6 0.66 10 1 C10.33 1.99 10.66 2.98 11 4 C7.0507432 3.44894091 3.65079826 2.61064629 0 1 C0 0.67 0 0.34 0 0 Z " fill="#B8E0EF" transform="translate(141,226)"/>
<path d="M0 0 C2 1 2 1 3.25 3.375 C3.4975 4.24125 3.745 5.1075 4 6 C3.01 7.485 3.01 7.485 2 9 C1.01 8.34 0.02 7.68 -1 7 C-0.67 4.69 -0.34 2.38 0 0 Z " fill="#0391CA" transform="translate(286,146)"/>
<path d="M0 0 C0 0.99 0 1.98 0 3 C-3.3 3 -6.6 3 -10 3 C-10 2.67 -10 2.34 -10 2 C-6.38026598 0.68373308 -3.90432869 0 0 0 Z " fill="#0079BE" transform="translate(276,222)"/>
<path d="M0 0 C2.70608417 1.35304209 2.96183047 2.80966544 4.125 5.5625 C4.47820312 6.38878906 4.83140625 7.21507812 5.1953125 8.06640625 C5.46085937 8.70449219 5.72640625 9.34257812 6 10 C5.34 10.66 4.68 11.32 4 12 C3.32645501 10.56570999 2.66140299 9.12742943 2 7.6875 C1.62875 6.88699219 1.2575 6.08648437 0.875 5.26171875 C0 3 0 3 0 0 Z " fill="#95DDF6" transform="translate(303,184)"/>
<path d="M0 0 C2.50298434 2.93828597 3.46930939 5.17902761 4 9 C3.01 9 2.02 9 1 9 C0.67 6.03 0.34 3.06 0 0 Z " fill="#BEEBF7" transform="translate(290,167)"/>
<path d="M0 0 C0.66 0 1.32 0 2 0 C1.67 1.65 1.34 3.3 1 5 C-0.32 5 -1.64 5 -3 5 C-1.125 1.125 -1.125 1.125 0 0 Z " fill="#D2E9F7" transform="translate(213,165)"/>
<path d="M0 0 C0.33 0 0.66 0 1 0 C0.25 6.75 0.25 6.75 -2 9 C-2.66 8.34 -3.32 7.68 -4 7 C-2.68 4.69 -1.36 2.38 0 0 Z " fill="#0088C1" transform="translate(104,144)"/>
<path d="M0 0 C1.65 0.33 3.3 0.66 5 1 C5.33 1.99 5.66 2.98 6 4 C3.36 4 0.72 4 -2 4 C-2 3.34 -2 2.68 -2 2 C-1.34 2 -0.68 2 0 2 C0 1.34 0 0.68 0 0 Z " fill="#E5F7F4" transform="translate(135,143)"/>
<path d="M0 0 C2 1 2 1 3.125 4.0625 C3.41375 5.031875 3.7025 6.00125 4 7 C-0.875 4.375 -0.875 4.375 -2 1 C-1.34 0.67 -0.68 0.34 0 0 Z " fill="#0070AE" transform="translate(75,266)"/>
<path d="M0 0 C0.66 0.33 1.32 0.66 2 1 C1.34 2.65 0.68 4.3 0 6 C-1.32 5.34 -2.64 4.68 -4 4 C-2.68 2.68 -1.36 1.36 0 0 Z " fill="#1F88BF" transform="translate(209,249)"/>
<path d="M0 0 C0.99 0.33 1.98 0.66 3 1 C2.01 2.32 1.02 3.64 0 5 C-1.32 4.34 -2.64 3.68 -4 3 C-2.1875 1.4375 -2.1875 1.4375 0 0 Z " fill="#1986BE" transform="translate(215,245)"/>
<path d="M0 0 C2.58949269 1.29474635 2.96035764 2.32663393 4 5 C4.125 7.75 4.125 7.75 4 10 C1.16625119 6.79663178 0.4794463 4.21912747 0 0 Z " fill="#C7EEFA" transform="translate(316,209)"/>
<path d="M0 0 C1.5625 1.6875 1.5625 1.6875 3 4 C2.6875 6.75 2.6875 6.75 2 9 C1.34 8.67 0.68 8.34 0 8 C-1.27536232 2.55072464 -1.27536232 2.55072464 0 0 Z " fill="#469CC7" transform="translate(308,197)"/>
<path d="M0 0 C0.66 0 1.32 0 2 0 C3.25664978 2.90600261 4 4.79604584 4 8 C3.34 8 2.68 8 2 8 C0.23537317 4.91190305 0 3.76687864 0 0 Z " fill="#1380AD" transform="translate(304,191)"/>
<path d="M0 0 C0.33 0.66 0.66 1.32 1 2 C1.99 2 2.98 2 4 2 C3.34 3.32 2.68 4.64 2 6 C2 5.34 2 4.68 2 4 C0.02 4.99 0.02 4.99 -2 6 C-1.49396008 3.83125748 -1.00016187 2.00032373 0 0 Z " fill="#1184BB" transform="translate(93,174)"/>
<path d="M0 0 C0.66 0.66 1.32 1.32 2 2 C0.35 4.97 -1.3 7.94 -3 11 C-4 8 -4 8 -3.22265625 5.95703125 C-2.83980469 5.24933594 -2.45695312 4.54164063 -2.0625 3.8125 C-1.68222656 3.09707031 -1.30195312 2.38164062 -0.91015625 1.64453125 C-0.60980469 1.10183594 -0.30945313 0.55914062 0 0 Z " fill="#348AB2" transform="translate(87,172)"/>
<path d="M0 0 C2.15377564 2.62198774 3.40072174 4.64404172 4 8 C3.01 8.495 3.01 8.495 2 9 C0.93347808 6.69631264 -0.06421005 4.35981813 -1 2 C-0.67 1.34 -0.34 0.68 0 0 Z " fill="#1186B8" transform="translate(289,160)"/>
<path d="M0 0 C3 3.75 3 3.75 3 6 C0.69 5.34 -1.62 4.68 -4 4 C-2.68 2.68 -1.36 1.36 0 0 Z " fill="#338DB8" transform="translate(322,225)"/>
<path d="M0 0 C0.33 0.99 0.66 1.98 1 3 C-0.9375 5.6875 -0.9375 5.6875 -3 8 C-3.33 7.34 -3.66 6.68 -4 6 C-1.68421053 1.68421053 -1.68421053 1.68421053 0 0 Z " fill="#008BCA" transform="translate(102,142)"/>
</svg>
